<?xml version="1.0" encoding="utf-8"?>
<!-- Generator: Adobe Illustrator 27.8.1, SVG Export Plug-In . SVG Version: 6.00 Build 0)  -->
<svg version="1.1" id="Layer_1" xmlns="http://www.w3.org/2000/svg" xmlns:xlink="http://www.w3.org/1999/xlink" x="0px" y="0px"
	 viewBox="0 0 800 800" style="enable-background:new 0 0 800 800;" xml:space="preserve">
<style type="text/css">
	.st0{fill:#FFFFFF;}
	.st1{fill-rule:evenodd;clip-rule:evenodd;fill:#FFFFFF;}
</style>
<path class="st0" d="M379.2,531.7h41.6V418.3h104.7v-40.3H420.8V264.5h-41.6v113.4H275.8v40.3h103.4V531.7z"/>
<path class="st0" d="M186.3,695.6h35.3V594.8h93.3v-31.5h-93.3V461.1h-35.3v102.1H93.1v31.5h93.3V695.6z"/>
<path class="st0" d="M578.4,331.2h35.3V230.5h94.5v-30.3h-94.5V98.1h-35.3v102.1h-93.3v30.3h93.3V331.2z"/>
<path class="st0" d="M385.5,775h30.3v-71.9H480v-26.4h-64.3v-71.9h-30.2v71.9h-63v26.4h63V775z"/>
<path class="st0" d="M187.6,331.2h32.8v-102H315v-29h-94.7V98.1h-32.8v102.1H93.1v29h94.5V331.2z"/>
<path class="st0" d="M680.8,482.6h30.2V412H775v-27.7h-63.9v-70.6h-30.2v70.6h-63V412h63L680.8,482.6z"/>
<path class="st1" d="M578.4,695.6h35.3V594.8h94.5v-31.5h-94.5V461.1h-35.3v102.1h-93.3v31.5h93.3V695.6z"/>
<path class="st0" d="M479.7,115.8V94.3h-63V25H394v69.3h-63v21.4h63v69.3h22.7v-69.3H479.7z M87.7,477.5h22.7v-69.3h63.1v-21.4
	h-63.1v-68H87.7v68.1H25v22.7l62.7-0.1V477.5z"/>
</svg>
